<svg fill="#90949C" xmlns="http://www.w3.org/2000/svg" viewBox="0 0 562.2 75.8" height = "100px" width="250px"><path d="M0 75.8h12.4V36.4H0v39.4zm205.4-35.4h12.9V75h4.3V40.4h12.9v-3.8h-30l-.1 3.8zm55.3-4.5L243.5 75h4.3l4.6-10.7h17.2L274 75h4.6l-17.2-39.1h-.7zm-6.9 25l7.1-16.4 7.1 16.4h-14.2zm-68.1 4l-24.5-29.3-.8.3v38.9h4.3V46l24.8 29.8.5-.2v-39h-4.3v28.3zM38.4 75.8h12.4V21.2H38.4v54.6zm81.9-.8h22.5v-3.8h-18.2V57.4H141v-3.8h-16.4V40.4h18.2v-3.8h-22.5V75zm-19.4-20.2c1.5-1.9 2.2-4.3 2.2-7 0-3.3-1.2-6-3.7-8.3-2.4-2.2-6.2-3.4-11.3-3.4-1.6 0-3.2 0-4.6.1s-2.8.2-4.2.4v38.1h4V59.6h6.9l10.4 15.1h5L94.5 58.6c2.8-.6 4.9-1.9 6.4-3.8zm-12.8 1.5h-2.4c-.9 0-1.6-.1-2.1-.2V40.4c.6-.1 1.5-.2 2.5-.3s1.9-.2 2.8-.2c3.2 0 5.6.8 7.2 2.3s2.4 3.5 2.4 5.8c0 2.5-.8 4.5-2.5 6-1.7 1.6-4.3 2.3-7.9 2.3zm284.5-15.9h12.6V75h4.3V40.4h12.9v-3.8h-29.7l-.1 3.8zm99.5 1.1c-1.7-1.8-3.7-3.1-6-4.1s-4.7-1.5-7.3-1.5c-2.6 0-5.1.5-7.4 1.5s-4.4 2.4-6.2 4.1c-1.8 1.8-3.2 3.8-4.3 6.3-1.1 2.4-1.6 5.1-1.6 8s.5 5.6 1.5 8c1 2.4 2.3 4.6 4.1 6.3 1.7 1.8 3.7 3.2 6 4.1 2.3 1 4.7 1.5 7.4 1.5 2.6 0 5-.5 7.4-1.5s4.4-2.4 6.2-4.1 3.2-3.9 4.3-6.3c1.1-2.4 1.6-5.1 1.6-8s-.5-5.6-1.5-8c-1.2-2.5-2.5-4.6-4.2-6.3zm-.1 20.7c-.7 2-1.7 3.7-3 5.1-1.3 1.5-2.8 2.6-4.6 3.4-1.8.8-3.7 1.3-5.9 1.3-2.1 0-4.1-.4-5.9-1.3-1.8-.8-3.4-2-4.7-3.4-1.3-1.5-2.3-3.2-3-5.1-.7-2-1.1-4.1-1.1-6.4 0-2.3.4-4.4 1.1-6.4s1.7-3.7 3-5.1c1.3-1.4 2.9-2.6 4.7-3.4 1.8-.8 3.8-1.3 5.9-1.3 2.2 0 4.1.4 5.9 1.3 1.8.8 3.3 2 4.6 3.4 1.3 1.4 2.3 3.1 3 5.1s1.1 4.1 1.1 6.4c0 2.3-.4 4.4-1.1 6.4zm48.3 3l-24.7-29.6-.7.3v38.9h4.3V46l25 29.8.4-.2v-39h-4.3v28.6zm32.1-11.9c-2.4-1.1-4.1-2.2-5.1-3.3s-1.5-2.3-1.5-3.7c0-1.8.6-3.3 1.9-4.6 1.3-1.3 3.1-2 5.4-2 1.3 0 2.5.2 3.7.7 1.2.4 2.2 1 3.1 1.6l1.8-3.6c-1.1-.8-2.4-1.4-3.9-1.9-1.5-.4-3-.7-4.7-.7-3.5 0-6.4 1.1-8.5 3.2-2.2 2.1-3.3 4.6-3.3 7.4 0 2.3.7 4.2 2.1 5.9 1.4 1.7 3.7 3.2 7 4.7 3.2 1.4 5.2 2.7 6.1 3.9.9 1.2 1.4 2.6 1.4 4.3 0 1.7-.6 3.3-1.8 4.7-1.2 1.4-3 2.1-5.6 2.1-1.5 0-3.1-.3-4.7-.9-1.6-.6-3.1-1.5-4.6-2.6l-2.1 3.8c1.7 1.1 3.4 2 5.2 2.6s3.8.9 6 .9c3.3 0 6-1.1 8.4-3.2 2.3-2.1 3.5-4.8 3.5-7.9.2-2.5-.3-4.6-1.7-6.3-1.3-1.6-4-3.3-8.1-5.1zM297.3 36.6H293V75h22.5v-3.8h-18.2V36.6zm55.8 24.3c0 3.7-1 6.5-2.9 8.2-2 1.7-4.4 2.6-7.4 2.6-3.1 0-5.6-.9-7.5-2.6s-2.9-4.5-2.9-8.2V36.6h-4.1v24.7c0 4.7 1.3 8.3 3.9 10.7 2.6 2.5 6.1 3.7 10.5 3.7 4.3 0 7.8-1.3 10.5-3.9s4.1-6.1 4.1-10.5V36.6H353l.1 24.3zM418 75h4.3V36.6H418V75zm-398.8.8h12.4V0H19.2v75.8z"/></svg>